<svg width="19" height="16" viewBox="0 0 19 16" fill="none" xmlns="http://www.w3.org/2000/svg">
<path d="M12.7109 16V14.8594H13.8516V13.7188H17.2812V12.5781H18.4219V3.42969H17.2812V2.28906H13.8516V0H0.140625V14.8594H1.28125V16H12.7109ZM4.71094 6.85938V3.42969H5.85156V6.85938H4.71094ZM8.14062 6.85938V3.42969H9.28125V6.85938H8.14062ZM13.8516 11.4297V4.57812H16.1406V11.4297H13.8516ZM4.71094 12.5781V11.4297H3.5625V10.2891H2.42188V9.14844H3.5625V10.2891H4.71094V11.4297H9.28125V10.2891H10.4219V9.14844H11.5625V10.2891H10.4219V11.4297H9.28125V12.5781H4.71094Z" fill="#000"/>
</svg>
